# xmcd
#
# Track frame offsets: 
#        150
#        18931
#        32907
#        50804
#        66200
#        85724
#        104854
#        122112
#        140358
#        153685
#        169671
#        193203
#        213069
#        217739
#        222409
#        227079
#        231749
#        236419
#        241089
#        245759
#        250429
#        255099
#        259769
#        264439
#        269109
#        271529
#        273945
#        276365
#        278785
#        281205
#        283625
#        286045
#        288465
#
# Disc length: 3876 seconds
#
# Revision: 0
# Processed by: cddbd v1.5.2PL0 Copyright (c) Steve Scherf et al.
# Submitted via: ExactAudioCopyFreeDBPlugin 1.0
#
DISCID=0a0f2221
DTITLE=Luboš Andršt - Blues grooves
DYEAR=2004
DGENRE=Blues
TTITLE0=Good time boogie
TTITLE1=Rockin’ blues
TTITLE2=Major blues
TTITLE3=Swinging uptown
TTITLE4=After midnight
TTITLE5=Shuffle one’s feet
TTITLE6=Rumba blues
TTITLE7=Last night blues
TTITLE8=Shaken funky
TTITLE9=Minor blues
TTITLE10=Jumping boogie
TTITLE11=Relaxed funky
TTITLE12=Good Time
TTITLE13=Rockin' Blues
TTITLE14=Major Blues
TTITLE15=Swinging Uptown
TTITLE16=After Midnight
TTITLE17=Shuffle One's Feet
TTITLE18=Rumba Blues
TTITLE19=Last Night Blues
TTITLE20=Shaken Funky
TTITLE21=Minor Blues
TTITLE22=Jumping Boogie
TTITLE23=Relaxed Funky
TTITLE24=Good Time
TTITLE25=Rockin' Blues
TTITLE26=Swinging Uptown
TTITLE27=Shuffle One's Feet
TTITLE28=Rumba Blues
TTITLE29=Last Night Blues
TTITLE30=Shaken Funky
TTITLE31=Jumping Boogie
TTITLE32=Relaxed Funky
EXTD=
EXTT0=
EXTT1=
EXTT2=
EXTT3=
EXTT4=
EXTT5=
EXTT6=
EXTT7=
EXTT8=
EXTT9=
EXTT10=
EXTT11=
EXTT12=
EXTT13=
EXTT14=
EXTT15=
EXTT16=
EXTT17=
EXTT18=
EXTT19=
EXTT20=
EXTT21=
EXTT22=
EXTT23=
EXTT24=
EXTT25=
EXTT26=
EXTT27=
EXTT28=
EXTT29=
EXTT30=
EXTT31=
EXTT32=
PLAYORDER=
